<svg width="2000" height="320" viewBox="0 0 2000 320" fill="none" xmlns="http://www.w3.org/2000/svg">
  <g transform="translate(0, 25) scale(0.2634)">
    <path d="M626.224 0C627.936 0.672454 672.077 3.49917 678.062 4.2334C706.438 7.90006 734.577 13.243 762.317 20.2344C932.85 65.3224 1075.33 182.385 1152.64 340.938C1182.99 402.825 1202.51 469.459 1210.34 537.943C1212.1 552.14 1212.87 566.289 1213.9 580.532C1214.24 585.33 1213.69 596.715 1214.89 600.369L1215 600.713V613.237C1213.79 616.631 1213.48 643.595 1213.04 649.178C1211.49 668.287 1209.14 687.326 1206 706.239C1192.6 785.466 1163.47 861.21 1120.34 929.004C1111.12 943.711 1102.28 961.362 1086.56 969.84C1015.07 1008.43 829.184 1017.71 743.582 1021.94C733.586 1022.43 723.358 1022.83 713.35 1022.97C705.815 1023.08 682.026 1021.67 676.063 1024H534.792C531.67 1022.59 480.085 1022.28 470.868 1021.83C413.224 1019.52 355.691 1014.96 298.4 1008.19C244.465 1002.09 180.935 994.823 130.997 971.673C114.26 963.913 103.261 943.463 93.3652 927.622C53.0951 863.963 25.0064 793.375 10.5293 719.452C7.05084 700.811 4.3084 682.046 2.30957 663.191C1.68739 657.324 1.60176 637.348 0 633.242V580.884C1.35664 578.4 1.74226 558.345 2.16992 553.735C4.24969 530.652 7.62762 507.704 12.2881 485C26.1822 418.912 47.3809 364.614 80.5273 305.855C139.616 201.959 228.195 117.923 335.055 64.3828C370.175 46.489 410.569 30.2573 448.827 20.8389C479.272 13.1679 510.176 7.45163 541.351 3.72461C551.309 2.50541 561.516 2.26476 571.51 1.34082C575.612 0.961588 580.82 1.2184 584.626 0H626.224ZM857.299 896.961C763.463 888.946 669.306 885.303 575.131 886.045C477.571 888.181 380.418 892.233 283.587 904.894C259.679 908.02 50.7084 936.616 165.867 971.353C212.61 985.449 275.298 993.256 324.45 998.145C364.672 1002.13 404.965 1005.33 445.311 1007.76C501.422 1010.75 558.492 1011.41 614.714 1012.07C622.213 1012.16 631.052 1012.31 638.462 1011.8C652.718 1010.06 668.624 1011.37 683.111 1010.97C689.341 1010.8 695.481 1010.27 701.687 1010.06L744.864 1008.91C790.023 1006.9 835.123 1003.78 880.128 999.551C896.217 998.02 913.469 996.406 929.03 994.413C956.054 990.96 1170.8 963.717 1041.55 926.239C984.719 909.764 916.334 902.134 857.299 896.961ZM484.062 496.228C480.905 495.787 477.209 495.053 474.147 495.473C462.787 500.838 465.026 508.259 464.99 519.222C464.953 530.722 465.124 542.25 465.119 553.754L465.071 653.705C465.072 670.898 465.442 689.557 465.019 706.655C457.302 703.487 450.938 700.948 442.625 700.218C413.062 697.607 382.656 711.781 370.941 740.229C359.877 765.989 371.973 793.743 398.021 803.799C414.58 810.194 436.019 809.785 452.21 802.304C473.654 792.39 485.554 777.338 490.49 754.681C491.354 748.208 491.073 739.676 491.063 732.996L491.01 699.168C490.986 658.279 490.518 616.346 490.978 575.534C512.592 582.412 533.601 592.369 544.81 613.712C551.404 626.266 551.684 643.649 549.97 657.448C549.79 658.919 550.186 659.91 551.046 661.025C552.397 661.144 553.248 661.032 554.246 659.887C577.842 632.845 571.328 587.471 549.839 561.186C535.259 543.352 514.842 531.058 498.512 514.913C493.004 509.41 488.939 502.011 484.062 496.228ZM650.915 255.656C639.702 251.85 621.245 243.586 609.985 244.054C590.093 247.275 592.957 270.015 593.019 285.156L593.1 318.835L593.091 431.688C593.093 448.984 593.873 475.05 592.832 491.565C570.094 482.258 540.007 480.724 518.365 493.649L518.977 494.327C525.906 501.919 541.01 513.716 549.177 520.378C579.359 544.997 592.855 568.081 598.803 606.562C612.098 596.827 619.584 584.873 625.09 569.463C629.747 556.429 629 545.741 628.977 532.225L628.917 497.903C628.875 452.348 628.015 403.203 628.946 357.915C632.274 352.111 633.177 350.416 639.602 347.721C645.588 348.851 655.109 352.42 661.125 354.503L698.174 367.428L767.277 391.516C774.058 393.873 800.975 402.864 806.018 406.189C807.667 409.363 809.826 414.062 809.95 417.639C810.324 428.372 810.17 439.498 810.158 450.241L810.081 514.277C810.075 522.681 810.158 531.085 810.336 539.487C810.389 541.709 810.841 550.156 810.592 551.616C810.799 553.373 811.25 554.804 810.372 556.22C808.64 556.722 807.364 555.518 805.626 554.668C741.767 523.437 643.956 578.332 663.023 654.826C668.731 673.805 680.786 688.62 698.21 697.893C746.359 723.522 811.369 701.725 837.585 654.897C849.355 633.872 846.976 604.753 846.94 581.121L847 513.121L847.018 404.589C847.024 390.32 848.673 344.624 845.262 334.149C843.239 327.941 839.804 322.691 833.871 319.638C822.38 313.723 803.579 308.378 790.842 304.127C772.801 298.106 754.92 291.61 736.908 285.486L650.915 255.656Z" fill="#1CBA54"/>
  </g>
  <text x="380" y="240" font-family="'Segoe UI', system-ui, -apple-system, sans-serif" font-size="240" font-weight="700" fill="#ffffff" letter-spacing="3">Sound</text>
  <text x="1120" y="240" font-family="'Segoe UI', system-ui, -apple-system, sans-serif" font-size="240" font-weight="700" fill="#1CBA54" letter-spacing="3">Dome</text>
</svg>
